<svg width="800" height="600" xmlns="http://www.w3.org/2000/svg">
  <rect width="800" height="600" fill="white"/>
  <rect x="20" y="20" width="760" height="60" fill="#5a67d8" rx="6"/>
  <text x="40" y="55" font-family="Arial" font-size="24" fill="white">OikosPay</text>
  
  <!-- Dashboard cards -->
  <rect x="20" y="100" width="370" height="120" fill="white" stroke="#e2e8f0" stroke-width="1" rx="8"/>
  <text x="40" y="130" font-family="Arial" font-size="16" fill="#4a5568">Bank Balance</text>
  <text x="40" y="170" font-family="Arial" font-size="28" font-weight="bold" fill="#5a67d8">€8,520</text>
  
  <rect x="410" y="100" width="370" height="120" fill="white" stroke="#e2e8f0" stroke-width="1" rx="8"/>
  <text x="430" y="130" font-family="Arial" font-size="16" fill="#4a5568">Total Tenants</text>
  <text x="430" y="170" font-family="Arial" font-size="28" font-weight="bold" fill="#5a67d8">6</text>
  
  <rect x="20" y="240" width="370" height="120" fill="white" stroke="#e2e8f0" stroke-width="1" rx="8"/>
  <text x="40" y="270" font-family="Arial" font-size="16" fill="#4a5568">Unpaid Charges</text>
  <text x="40" y="310" font-family="Arial" font-size="28" font-weight="bold" fill="#5a67d8">€2,190</text>
  
  <rect x="410" y="240" width="370" height="120" fill="white" stroke="#e2e8f0" stroke-width="1" rx="8"/>
  <text x="430" y="270" font-family="Arial" font-size="16" fill="#4a5568">Tenants Paid</text>
  <text x="430" y="310" font-family="Arial" font-size="28" font-weight="bold" fill="#5a67d8">12/18</text>
  
  <!-- Building feed section -->
  <rect x="20" y="380" width="760" height="200" fill="white" stroke="#e2e8f0" stroke-width="1" rx="8"/>
  <text x="40" y="410" font-family="Arial" font-size="18" font-weight="bold" fill="#4a5568">Building Feed</text>
  <line x1="40" y1="430" x2="760" y2="430" stroke="#e2e8f0" stroke-width="1"/>
  <text x="40" y="460" font-family="Arial" font-size="14" fill="#4a5568">Tenant in #201 paid their charges</text>
  <text x="40" y="490" font-family="Arial" font-size="14" fill="#4a5568">New maintenance expense added</text>
  <text x="40" y="520" font-family="Arial" font-size="14" fill="#4a5568">Invitation sent to new tenant</text>
  <text x="40" y="550" font-family="Arial" font-size="14" fill="#4a5568">Monthly charges issued</text>
</svg>