<?xml version="1.0" encoding="UTF-8"?>
<svg width="48" height="48" viewBox="0 0 48 48" fill="none" xmlns="http://www.w3.org/2000/svg">
  <rect width="48" height="48" rx="24" fill="#EEF2FF"/>
  <path d="M24 12C17.373 12 12 17.373 12 24C12 30.627 17.373 36 24 36C30.627 36 36 30.627 36 24C36 17.373 30.627 12 24 12ZM26 30H22V26H26V30ZM26 22C26 24 24 24 24 26H22C22 23 24 22 24 20C24 18.9 23.1 18 22 18C20.9 18 20 18.9 20 20H18C18 17.79 19.79 16 22 16C24.21 16 26 17.79 26 20C26 21.5 26 22 24 24C24 24 26 24 26 22Z" fill="#6366F1"/>
</svg>
